<?xml version="1.0" encoding="UTF-8" standalone="no"?>
<svg xmlns:dc="http://purl.org/dc/elements/1.1/" xmlns:cc="http://creativecommons.org/ns#" xmlns:rdf="http://www.w3.org/1999/02/22-rdf-syntax-ns#" xmlns:svg="http://www.w3.org/2000/svg" xmlns="http://www.w3.org/2000/svg" xmlns:sodipodi="http://sodipodi.sourceforge.net/DTD/sodipodi-0.dtd" xmlns:inkscape="http://www.inkscape.org/namespaces/inkscape" version="1.1" id="svg2" xml:space="preserve" width="688.70667" height="568.93335" viewBox="0 0 688.70667 568.93335" sodipodi:docname="puma-se--eps--vector-logo.eps">
    <metadata id="metadata8">
        <rdf:RDF>
            <cc:Work rdf:about="">
                <dc:format>image/svg+xml</dc:format><dc:type rdf:resource="http://purl.org/dc/dcmitype/StillImage"/></cc:Work>
        </rdf:RDF>
    </metadata><defs id="defs6"/><sodipodi:namedview pagecolor="#ffffff" bordercolor="#666666" borderopacity="1" objecttolerance="10" gridtolerance="10" guidetolerance="10" inkscape:pageopacity="0" inkscape:pageshadow="2" inkscape:window-width="640" inkscape:window-height="480" id="namedview4"/><g id="g10" inkscape:groupmode="layer" inkscape:label="ink_ext_XXXXXX" transform="matrix(1.3333333,0,0,-1.3333333,0,568.93333)">
        <g id="g12" transform="scale(0.1)"><path d="m 18.9023,321 c 4.7852,-0.66 11.7383,-0.871 19.1211,-0.871 40.6329,0 62.3636,22.601 62.3636,62.152 0.215,34.539 -19.3362,56.481 -59.3167,56.481 -9.7812,0 -17.168,-0.864 -22.168,-1.953 z M 0,450.5 c 11.5195,1.949 25.207,3.262 40.1992,3.262 27.1602,0 46.4961,-6.52 59.3164,-18.25 13.2544,-11.953 20.8594,-28.903 20.8594,-52.59 0,-23.891 -7.605,-43.461 -21.0742,-56.922 C 85.3945,312.309 62.7969,304.91 34.332,304.91 20.6406,304.91 9.5625,305.57 0,306.648 V 450.5" style="fill:#af783c;fill-opacity:1;fill-rule:nonzero;stroke:none" id="path14"/><path d="m 156.914,358.59 c 0,-23.031 13.035,-40.41 31.723,-40.41 18.254,0 31.945,17.16 31.945,40.851 0,17.809 -8.91,40.188 -31.512,40.188 -22.375,0 -32.156,-20.86 -32.156,-40.629 z m 83.219,1.09 c 0,-38.899 -27.16,-55.848 -52.363,-55.848 -28.25,0 -50.411,20.859 -50.411,54.109 0,34.981 23.25,55.629 52.149,55.629 30.203,0 50.625,-21.961 50.625,-53.89" style="fill:#af783c;fill-opacity:1;fill-rule:nonzero;stroke:none" id="path16"/><path d="m 270.371,411.391 14.125,-53.45 c 2.824,-11.742 5.645,-22.601 7.606,-33.472 h 0.648 c 2.391,10.652 5.867,21.953 9.344,33.25 l 17.168,53.672 h 16.074 l 16.301,-52.59 c 3.91,-12.602 6.953,-23.68 9.343,-34.332 h 0.653 c 1.734,10.652 4.562,21.73 8.039,34.121 l 14.992,52.801 H 403.57 L 369.672,306.219 h -17.383 l -16.082,50.203 c -3.691,11.726 -6.734,22.156 -9.344,34.547 h -0.433 c -2.606,-12.61 -5.867,-23.481 -9.559,-34.77 l -16.949,-49.98 h -17.383 l -31.723,105.172 h 19.555" style="fill:#af783c;fill-opacity:1;fill-rule:nonzero;stroke:none" id="path18"/><path d="m 422.73,382.922 c 0,11.09 -0.218,19.777 -0.871,28.469 h 16.946 l 1.09,-17.379 h 0.433 c 5.215,9.769 17.383,19.558 34.766,19.558 14.558,0 37.156,-8.691 37.156,-44.769 v -62.582 h -19.121 v 60.633 c 0,16.937 -6.305,31.07 -24.336,31.07 -12.387,0 -22.168,-8.91 -25.645,-19.563 -0.867,-2.39 -1.296,-5.648 -1.296,-8.898 V 306.219 H 422.73 v 76.703" style="fill:#af783c;fill-opacity:1;fill-rule:nonzero;stroke:none" id="path20"/><path d="m 543.355,460.5 h 19.122 V 306.219 H 543.355 V 460.5" style="fill:#af783c;fill-opacity:1;fill-rule:nonzero;stroke:none" id="path22"/><path d="m 606.594,358.59 c 0,-23.031 13.035,-40.41 31.722,-40.41 18.25,0 31.942,17.16 31.942,40.851 0,17.809 -8.91,40.188 -31.508,40.188 -22.379,0 -32.156,-20.86 -32.156,-40.629 z m 83.215,1.09 c 0,-38.899 -27.157,-55.848 -52.364,-55.848 -28.246,0 -50.41,20.859 -50.41,54.109 0,34.981 23.254,55.629 52.149,55.629 30.207,0 50.625,-21.961 50.625,-53.89" style="fill:#af783c;fill-opacity:1;fill-rule:nonzero;stroke:none" id="path24"/><path d="m 769.371,359.891 c -20.859,0.429 -44.543,-3.262 -44.543,-23.692 0,-12.59 8.254,-18.238 17.813,-18.238 13.906,0 22.82,8.687 25.859,17.598 0.656,2.171 0.871,4.339 0.871,6.082 z m 18.465,-28.461 c 0,-9.129 0.441,-18.039 1.523,-25.211 h -17.168 l -1.515,13.25 h -0.653 c -5.867,-8.25 -17.168,-15.637 -32.156,-15.637 -21.301,0 -32.16,14.988 -32.16,30.207 0,25.422 22.598,39.32 63.231,39.109 v 2.172 c 0,8.469 -2.391,24.34 -23.903,24.121 -9.996,0 -20.207,-2.832 -27.597,-7.832 l -4.348,12.832 c 8.691,5.43 21.515,9.129 34.765,9.129 32.161,0 39.981,-21.961 39.981,-42.82 v -39.32" style="fill:#af783c;fill-opacity:1;fill-rule:nonzero;stroke:none" id="path26"/><path d="m 890.426,368.59 c 0,2.379 -0.215,5.64 -0.871,8.031 -2.821,11.957 -13.25,21.949 -27.59,21.949 -19.774,0 -31.512,-17.39 -31.512,-40.41 0,-21.301 10.652,-38.898 31.074,-38.898 12.825,0 24.551,8.687 28.028,22.808 0.656,2.61 0.871,5.219 0.871,8.262 z m 18.906,91.91 V 333.379 c 0,-9.34 0.434,-19.988 0.867,-27.16 h -16.945 l -0.871,18.25 h -0.649 c -5.656,-11.719 -18.254,-20.637 -35.421,-20.637 -25.418,0 -45.196,21.508 -45.196,53.457 -0.215,34.981 21.731,56.281 47.149,56.281 16.3,0 26.945,-7.609 31.73,-15.871 h 0.43 V 460.5 h 18.906" style="fill:#af783c;fill-opacity:1;fill-rule:nonzero;stroke:none" id="path28"/><path d="m 981.293,306.219 v 11.742 l 14.992,14.551 c 36.065,34.34 52.585,52.59 52.585,73.879 0,14.339 -6.74,27.597 -27.82,27.597 -12.81,0 -23.46,-6.519 -29.98,-11.957 l -6.086,13.481 c 9.563,8.039 23.686,14.34 39.766,14.34 30.42,0 43.24,-20.864 43.24,-41.071 0,-26.07 -18.9,-47.152 -48.67,-75.832 l -11.08,-10.429 v -0.442 h 63.22 v -15.859 h -90.167" style="fill:#af783c;fill-opacity:1;fill-rule:nonzero;stroke:none" id="path30"/><path d="m 1110.17,376.18 c 0,-36.719 11.3,-57.571 28.68,-57.571 19.34,0 28.68,22.813 28.68,58.879 0,34.774 -8.69,57.582 -28.68,57.582 -16.51,0 -28.68,-20.422 -28.68,-58.89 z m 76.7,2.179 c 0,-48.019 -18.04,-74.527 -49.11,-74.527 -27.59,0 -46.5,25.859 -46.93,72.578 0,47.59 20.64,73.442 49.32,73.442 29.55,0 46.72,-26.512 46.72,-71.493" style="fill:#af783c;fill-opacity:1;fill-rule:nonzero;stroke:none" id="path32"/><path d="m 1221.67,376.18 c 0,-36.719 11.29,-57.571 28.68,-57.571 19.33,0 28.68,22.813 28.68,58.879 0,34.774 -8.69,57.582 -28.68,57.582 -16.52,0 -28.68,-20.422 -28.68,-58.89 z m 76.69,2.179 c 0,-48.019 -18.03,-74.527 -49.1,-74.527 -27.59,0 -46.5,25.859 -46.94,72.578 0,47.59 20.64,73.442 49.33,73.442 29.55,0 46.71,-26.512 46.71,-71.493" style="fill:#af783c;fill-opacity:1;fill-rule:nonzero;stroke:none" id="path34"/><path d="m 1309.47,279.281 c 4.78,13.039 10.65,36.289 13.04,52.149 l 21.29,2.179 c -5.21,-18.48 -14.77,-42.597 -20.86,-52.808 l -13.47,-1.52" style="fill:#af783c;fill-opacity:1;fill-rule:nonzero;stroke:none" id="path36"/><path d="m 1378.14,376.18 c 0,-36.719 11.3,-57.571 28.68,-57.571 19.34,0 28.68,22.813 28.68,58.879 0,34.774 -8.69,57.582 -28.68,57.582 -16.51,0 -28.68,-20.422 -28.68,-58.89 z m 76.7,2.179 c 0,-48.019 -18.03,-74.527 -49.1,-74.527 -27.6,0 -46.5,25.859 -46.94,72.578 0,47.59 20.65,73.442 49.33,73.442 29.55,0 46.71,-26.512 46.71,-71.493" style="fill:#af783c;fill-opacity:1;fill-rule:nonzero;stroke:none" id="path38"/><path d="m 1489.63,376.18 c 0,-36.719 11.3,-57.571 28.69,-57.571 19.34,0 28.68,22.813 28.68,58.879 0,34.774 -8.69,57.582 -28.68,57.582 -16.52,0 -28.69,-20.422 -28.69,-58.89 z m 76.71,2.179 c 0,-48.019 -18.03,-74.527 -49.11,-74.527 -27.6,0 -46.5,25.859 -46.93,72.578 0,47.59 20.64,73.442 49.32,73.442 29.55,0 46.72,-26.512 46.72,-71.493" style="fill:#af783c;fill-opacity:1;fill-rule:nonzero;stroke:none" id="path40"/><path d="m 1601.13,376.18 c 0,-36.719 11.3,-57.571 28.68,-57.571 19.35,0 28.68,22.813 28.68,58.879 0,34.774 -8.69,57.582 -28.68,57.582 -16.51,0 -28.68,-20.422 -28.68,-58.89 z m 76.7,2.179 c 0,-48.019 -18.03,-74.527 -49.1,-74.527 -27.6,0 -46.5,25.859 -46.94,72.578 0,47.59 20.65,73.442 49.33,73.442 29.55,0 46.71,-26.512 46.71,-71.493" style="fill:#af783c;fill-opacity:1;fill-rule:nonzero;stroke:none" id="path42"/><path d="m 1757.16,421.82 v -51.07 h 49.11 v -13.031 h -49.11 v -51.5 h -13.9 v 51.5 h -49.1 v 13.031 h 49.1 v 51.07 h 13.9" style="fill:#af783c;fill-opacity:1;fill-rule:nonzero;stroke:none" id="path44"/><path d="m 1895.83,348.371 c 0,-2.379 0.23,-4.769 0.88,-6.949 3.48,-13.25 14.77,-22.383 28.68,-22.383 20.21,0 31.94,16.301 31.94,40.422 0,21.078 -10.86,39.109 -31.5,39.109 -12.83,0 -25,-9.121 -28.9,-23.468 -0.66,-2.391 -1.1,-4.993 -1.1,-8.043 z M 1876.94,460.5 h 18.89 v -66.051 h 0.44 c 6.74,11.723 18.91,19.121 35.85,19.121 26.29,0 44.55,-21.738 44.55,-53.461 0,-37.589 -23.9,-56.277 -47.37,-56.277 -15.2,0 -27.37,5.867 -35.42,19.559 h -0.43 l -1.09,-17.172 h -16.29 c 0.43,7.172 0.87,17.82 0.87,27.16 V 460.5" style="fill:#af783c;fill-opacity:1;fill-rule:nonzero;stroke:none" id="path46"/><path d="m 2000.6,378.578 c 0,12.391 -0.21,23.031 -0.87,32.813 h 16.73 l 0.87,-20.86 h 0.65 c 4.78,14.117 16.52,23.039 29.34,23.039 1.95,0 3.48,-0.23 5.21,-0.441 V 395.09 c -1.96,0.441 -3.91,0.441 -6.52,0.441 -13.48,0 -23.03,-10 -25.64,-24.34 -0.43,-2.601 -0.65,-5.871 -0.65,-8.91 v -56.062 h -19.12 v 72.359" style="fill:#af783c;fill-opacity:1;fill-rule:nonzero;stroke:none" id="path48"/><path d="m 2125.99,359.891 c -20.86,0.429 -44.54,-3.262 -44.54,-23.692 0,-12.59 8.25,-18.238 17.81,-18.238 13.91,0 22.82,8.687 25.86,17.598 0.66,2.171 0.87,4.339 0.87,6.082 z m 18.47,-28.461 c 0,-9.129 0.44,-18.039 1.52,-25.211 h -17.17 l -1.51,13.25 h -0.65 c -5.87,-8.25 -17.17,-15.637 -32.16,-15.637 -21.3,0 -32.16,14.988 -32.16,30.207 0,25.422 22.6,39.32 63.23,39.109 v 2.172 c 0,8.469 -2.39,24.34 -23.9,24.121 -10,0 -20.21,-2.832 -27.6,-7.832 l -4.35,12.832 c 8.69,5.43 21.52,9.129 34.77,9.129 32.16,0 39.98,-21.961 39.98,-42.82 v -39.32" style="fill:#af783c;fill-opacity:1;fill-rule:nonzero;stroke:none" id="path50"/><path d="m 2175.35,382.922 c 0,11.09 -0.22,19.777 -0.87,28.469 h 16.94 l 1.09,-17.379 h 0.43 c 5.22,9.769 17.39,19.558 34.77,19.558 14.56,0 37.16,-8.691 37.16,-44.769 v -62.582 h -19.12 v 60.633 c 0,16.937 -6.3,31.07 -24.34,31.07 -12.39,0 -22.17,-8.91 -25.64,-19.563 -0.87,-2.39 -1.3,-5.648 -1.3,-8.898 v -63.242 h -19.12 v 76.703" style="fill:#af783c;fill-opacity:1;fill-rule:nonzero;stroke:none" id="path52"/><path d="m 2367.67,368.59 c 0,2.379 -0.21,5.64 -0.87,8.031 -2.82,11.957 -13.25,21.949 -27.59,21.949 -19.77,0 -31.51,-17.39 -31.51,-40.41 0,-21.301 10.65,-38.898 31.07,-38.898 12.83,0 24.56,8.687 28.03,22.808 0.66,2.61 0.87,5.219 0.87,8.262 z m 18.91,91.91 V 333.379 c 0,-9.34 0.43,-19.988 0.87,-27.16 h -16.95 l -0.88,18.25 h -0.64 c -5.65,-11.719 -18.25,-20.637 -35.42,-20.637 -25.42,0 -45.2,21.508 -45.2,53.457 -0.21,34.981 21.73,56.281 47.15,56.281 16.3,0 26.95,-7.609 31.73,-15.871 h 0.43 V 460.5 h 18.91" style="fill:#af783c;fill-opacity:1;fill-rule:nonzero;stroke:none" id="path54"/><path d="m 2464.62,460.5 h 19.13 V 306.219 h -19.13 V 460.5" style="fill:#af783c;fill-opacity:1;fill-rule:nonzero;stroke:none" id="path56"/><path d="m 2527.87,358.59 c 0,-23.031 13.03,-40.41 31.72,-40.41 18.25,0 31.94,17.16 31.94,40.851 0,17.809 -8.91,40.188 -31.51,40.188 -22.38,0 -32.15,-20.86 -32.15,-40.629 z m 83.22,1.09 c 0,-38.899 -27.16,-55.848 -52.37,-55.848 -28.25,0 -50.41,20.859 -50.41,54.109 0,34.981 23.25,55.629 52.14,55.629 30.21,0 50.64,-21.961 50.64,-53.89" style="fill:#af783c;fill-opacity:1;fill-rule:nonzero;stroke:none" id="path58"/><path d="m 2706.07,369.879 c 0,3.269 -0.22,6.09 -1.09,8.48 -3.48,11.301 -12.6,20.422 -26.72,20.422 -18.26,0 -31.29,-15.422 -31.29,-39.75 0,-20.652 10.64,-37.82 31.07,-37.82 11.95,0 22.6,7.398 26.51,19.559 1.08,3.269 1.52,6.96 1.52,10.222 z m 19.12,-48.231 c 0,-24.328 -5,-38.886 -15,-48.238 -10.43,-9.34 -25.19,-12.601 -38.46,-12.601 -12.59,0 -26.5,3.043 -34.98,8.691 l 4.79,14.781 c 6.95,-4.562 17.81,-8.48 30.85,-8.48 19.56,0 33.89,10.219 33.89,36.949 v 11.512 h -0.43 c -5.65,-9.782 -17.16,-17.614 -33.46,-17.614 -26.08,0 -44.76,22.172 -44.76,51.293 0,35.629 23.24,55.629 47.58,55.629 18.25,0 28.03,-9.351 32.81,-18.039 h 0.43 l 0.66,15.86 h 16.95 c -0.65,-7.391 -0.87,-16.09 -0.87,-28.68 v -61.063" style="fill:#af783c;fill-opacity:1;fill-rule:nonzero;stroke:none" id="path60"/><path d="m 2768.68,358.59 c 0,-23.031 13.03,-40.41 31.73,-40.41 18.24,0 31.93,17.16 31.93,40.851 0,17.809 -8.91,40.188 -31.51,40.188 -22.38,0 -32.15,-20.86 -32.15,-40.629 z m 83.22,1.09 c 0,-38.899 -27.16,-55.848 -52.37,-55.848 -28.25,0 -50.41,20.859 -50.41,54.109 0,34.981 23.25,55.629 52.14,55.629 30.21,0 50.64,-21.961 50.64,-53.89" style="fill:#af783c;fill-opacity:1;fill-rule:nonzero;stroke:none" id="path62"/><path d="m 2873.43,325.559 c 5.87,-3.481 15.86,-7.379 25.43,-7.379 13.68,0 20.21,6.73 20.21,15.64 0,9.121 -5.44,13.91 -19.35,19.121 -19.12,6.95 -28.03,17.168 -28.03,29.77 0,16.949 13.91,30.859 36.29,30.859 10.65,0 19.99,-2.84 25.65,-6.531 l -4.57,-13.898 c -4.12,2.597 -11.73,6.3 -21.51,6.3 -11.3,0 -17.38,-6.519 -17.38,-14.339 0,-8.692 6.08,-12.614 19.77,-18.043 18.03,-6.739 27.59,-15.86 27.59,-31.5 0,-18.688 -14.56,-31.727 -39.11,-31.727 -11.51,0 -22.16,3.047 -29.55,7.387 l 4.56,14.34" style="fill:#af783c;fill-opacity:1;fill-rule:nonzero;stroke:none" id="path64"/><path d="m 3008.19,306.219 v 105.172 h 19.12 V 306.219 Z m 21.3,134.722 c 0,-6.511 -4.57,-11.73 -12.17,-11.73 -6.95,0 -11.52,5.219 -11.52,11.73 0,6.508 4.78,11.95 11.95,11.95 6.95,0 11.74,-5.211 11.74,-11.95" style="fill:#af783c;fill-opacity:1;fill-rule:nonzero;stroke:none" id="path66"/><path d="m 3059.04,382.922 c 0,11.09 -0.22,19.777 -0.87,28.469 h 16.95 l 1.09,-17.379 h 0.43 c 5.21,9.769 17.38,19.558 34.76,19.558 14.56,0 37.16,-8.691 37.16,-44.769 v -62.582 h -19.12 v 60.633 c 0,16.937 -6.3,31.07 -24.34,31.07 -12.38,0 -22.16,-8.91 -25.63,-19.563 -0.87,-2.39 -1.31,-5.648 -1.31,-8.898 v -63.242 h -19.12 v 76.703" style="fill:#af783c;fill-opacity:1;fill-rule:nonzero;stroke:none" id="path68"/><path d="m 3233.13,411.391 20.63,-58.891 c 3.48,-9.77 6.31,-18.461 8.48,-27.16 h 0.66 c 2.39,8.699 5.43,17.39 8.9,27.16 l 20.43,58.891 h 19.99 l -41.29,-105.172 h -18.25 l -39.98,105.172 h 20.43" style="fill:#af783c;fill-opacity:1;fill-rule:nonzero;stroke:none" id="path70"/><path d="m 3394.82,369.02 c 0.21,11.949 -5,30.859 -26.5,30.859 -19.57,0 -27.82,-17.598 -29.34,-30.859 z m -56.06,-13.7 c 0.43,-25.851 16.73,-36.5 36.07,-36.5 13.69,0 22.16,2.391 29.11,5.442 l 3.48,-13.692 c -6.73,-3.039 -18.47,-6.738 -35.2,-6.738 -32.37,0 -51.72,21.508 -51.72,53.227 0,31.73 18.69,56.511 49.33,56.511 34.55,0 43.46,-29.992 43.46,-49.332 0,-3.918 -0.22,-6.738 -0.66,-8.918 h -73.87" style="fill:#af783c;fill-opacity:1;fill-rule:nonzero;stroke:none" id="path72"/><path d="m 3511.97,309.91 c -5,-2.379 -16.09,-6.078 -30.21,-6.078 -31.73,0 -52.37,21.508 -52.37,53.668 0,32.379 22.17,56.07 56.5,56.07 11.29,0 21.29,-2.84 26.51,-5.66 l -4.35,-14.558 c -4.56,2.386 -11.73,5 -22.16,5 -24.12,0 -37.15,-18.043 -37.15,-39.762 0,-24.34 15.64,-39.328 36.5,-39.328 10.86,0 18.04,2.609 23.47,5 l 3.26,-14.352" style="fill:#af783c;fill-opacity:1;fill-rule:nonzero;stroke:none" id="path74"/><path d="m 3560.22,436.59 v -25.199 h 27.37 v -14.559 h -27.37 v -56.711 c 0,-13.043 3.69,-20.422 14.34,-20.422 5.21,0 8.26,0.43 11.08,1.301 l 0.87,-14.559 c -3.69,-1.3 -9.56,-2.609 -16.94,-2.609 -8.92,0 -16.09,3.047 -20.65,8.039 -5.21,5.867 -7.39,15.207 -7.39,27.59 v 57.371 h -16.3 v 14.559 h 16.3 v 19.558 l 18.69,5.641" style="fill:#af783c;fill-opacity:1;fill-rule:nonzero;stroke:none" id="path76"/><path d="m 3619.78,358.59 c 0,-23.031 13.04,-40.41 31.72,-40.41 18.26,0 31.94,17.16 31.94,40.851 0,17.809 -8.9,40.188 -31.5,40.188 -22.38,0 -32.16,-20.86 -32.16,-40.629 z m 83.22,1.09 c 0,-38.899 -27.17,-55.848 -52.36,-55.848 -28.25,0 -50.41,20.859 -50.41,54.109 0,34.981 23.24,55.629 52.15,55.629 30.19,0 50.62,-21.961 50.62,-53.89" style="fill:#af783c;fill-opacity:1;fill-rule:nonzero;stroke:none" id="path78"/><path d="m 3727.14,378.578 c 0,12.391 -0.21,23.031 -0.87,32.813 H 3743 l 0.88,-20.86 h 0.65 c 4.78,14.117 16.51,23.039 29.33,23.039 1.96,0 3.48,-0.23 5.22,-0.441 V 395.09 c -1.96,0.441 -3.91,0.441 -6.53,0.441 -13.46,0 -23.02,-10 -25.63,-24.34 -0.44,-2.601 -0.66,-5.871 -0.66,-8.91 v -56.062 h -19.12 v 72.359" style="fill:#af783c;fill-opacity:1;fill-rule:nonzero;stroke:none" id="path80"/><path d="m 3846.25,306.219 v 90.613 h -14.56 v 14.559 h 14.56 v 5 c 0,14.769 3.47,28.238 12.16,36.718 7.18,6.95 16.74,9.77 25.65,9.77 6.95,0 12.6,-1.52 16.3,-3.027 l -2.61,-14.782 c -2.83,1.301 -6.52,2.379 -12.17,2.379 -16.3,0 -20.43,-14.121 -20.43,-30.41 v -5.648 h 25.43 v -14.559 h -25.43 v -90.613 h -18.9" style="fill:#af783c;fill-opacity:1;fill-rule:nonzero;stroke:none" id="path82"/><path d="m 3916.88,358.59 c 0,-23.031 13.04,-40.41 31.73,-40.41 18.24,0 31.93,17.16 31.93,40.851 0,17.809 -8.9,40.188 -31.5,40.188 -22.38,0 -32.16,-20.86 -32.16,-40.629 z m 83.22,1.09 c 0,-38.899 -27.16,-55.848 -52.37,-55.848 -28.24,0 -50.41,20.859 -50.41,54.109 0,34.981 23.25,55.629 52.15,55.629 30.2,0 50.63,-21.961 50.63,-53.89" style="fill:#af783c;fill-opacity:1;fill-rule:nonzero;stroke:none" id="path84"/><path d="m 4024.24,378.578 c 0,12.391 -0.21,23.031 -0.87,32.813 h 16.74 l 0.86,-20.86 h 0.66 c 4.78,14.117 16.51,23.039 29.33,23.039 1.96,0 3.48,-0.23 5.22,-0.441 V 395.09 c -1.96,0.441 -3.92,0.441 -6.52,0.441 -13.47,0 -23.03,-10 -25.64,-24.34 -0.43,-2.601 -0.66,-5.871 -0.66,-8.91 v -56.062 h -19.12 v 72.359" style="fill:#af783c;fill-opacity:1;fill-rule:nonzero;stroke:none" id="path86"/><path d="m 4096.19,382.922 c 0,11.09 -0.43,19.777 -0.87,28.469 h 16.73 l 0.87,-17.172 h 0.65 c 5.87,10 15.64,19.351 33.24,19.351 14.13,0 24.99,-8.691 29.55,-21.09 h 0.44 c 3.26,6.09 7.61,10.43 11.95,13.692 6.3,4.777 13.04,7.398 23.03,7.398 14.13,0 34.77,-9.129 34.77,-45.64 v -61.711 h -18.68 v 59.32 c 0,20.43 -7.61,32.383 -22.82,32.383 -11.08,0 -19.34,-8.043 -22.82,-17.172 -0.87,-2.828 -1.51,-6.078 -1.51,-9.559 v -64.972 h -18.69 v 63.011 c 0,16.739 -7.39,28.692 -21.95,28.692 -11.74,0 -20.64,-9.57 -23.68,-19.121 -1.09,-2.621 -1.52,-6.09 -1.52,-9.34 v -63.242 h -18.69 v 76.703" style="fill:#af783c;fill-opacity:1;fill-rule:nonzero;stroke:none" id="path88"/><path d="m 4332.86,359.891 c -20.86,0.429 -44.54,-3.262 -44.54,-23.692 0,-12.59 8.25,-18.238 17.81,-18.238 13.9,0 22.81,8.687 25.86,17.598 0.65,2.171 0.87,4.339 0.87,6.082 z m 18.46,-28.461 c 0,-9.129 0.44,-18.039 1.53,-25.211 h -17.17 l -1.52,13.25 h -0.65 c -5.87,-8.25 -17.17,-15.637 -32.16,-15.637 -21.3,0 -32.16,14.988 -32.16,30.207 0,25.422 22.6,39.32 63.23,39.109 v 2.172 c 0,8.469 -2.39,24.34 -23.9,24.121 -9.99,0 -20.2,-2.832 -27.6,-7.832 l -4.34,12.832 c 8.69,5.43 21.51,9.129 34.76,9.129 32.16,0 39.98,-21.961 39.98,-42.82 v -39.32" style="fill:#af783c;fill-opacity:1;fill-rule:nonzero;stroke:none" id="path90"/><path d="m 4404.38,436.59 v -25.199 h 27.37 v -14.559 h -27.37 v -56.711 c 0,-13.043 3.69,-20.422 14.34,-20.422 5.21,0 8.26,0.43 11.08,1.301 l 0.87,-14.559 c -3.69,-1.3 -9.56,-2.609 -16.94,-2.609 -8.92,0 -16.09,3.047 -20.65,8.039 -5.21,5.867 -7.39,15.207 -7.39,27.59 v 57.371 h -16.3 v 14.559 h 16.3 v 19.558 l 18.69,5.641" style="fill:#af783c;fill-opacity:1;fill-rule:nonzero;stroke:none" id="path92"/><path d="m 4501.3,306.219 v 90.613 h -14.55 v 14.559 h 14.55 v 5 c 0,14.769 3.48,28.238 12.17,36.718 7.18,6.95 16.74,9.77 25.65,9.77 6.95,0 12.59,-1.52 16.3,-3.027 l -2.61,-14.782 c -2.83,1.301 -6.53,2.379 -12.17,2.379 -16.3,0 -20.43,-14.121 -20.43,-30.41 v -5.648 h 25.43 v -14.559 h -25.43 v -90.613 h -18.91" style="fill:#af783c;fill-opacity:1;fill-rule:nonzero;stroke:none" id="path94"/><path d="m 4571.95,358.59 c 0,-23.031 13.04,-40.41 31.72,-40.41 18.26,0 31.94,17.16 31.94,40.851 0,17.809 -8.91,40.188 -31.5,40.188 -22.39,0 -32.16,-20.86 -32.16,-40.629 z m 83.22,1.09 c 0,-38.899 -27.17,-55.848 -52.36,-55.848 -28.25,0 -50.41,20.859 -50.41,54.109 0,34.981 23.24,55.629 52.15,55.629 30.19,0 50.62,-21.961 50.62,-53.89" style="fill:#af783c;fill-opacity:1;fill-rule:nonzero;stroke:none" id="path96"/><path d="m 4679.31,378.578 c 0,12.391 -0.21,23.031 -0.87,32.813 h 16.73 l 0.88,-20.86 h 0.64 c 4.79,14.117 16.52,23.039 29.34,23.039 1.95,0 3.48,-0.23 5.22,-0.441 V 395.09 c -1.96,0.441 -3.91,0.441 -6.53,0.441 -13.47,0 -23.03,-10 -25.63,-24.34 -0.44,-2.601 -0.66,-5.871 -0.66,-8.91 v -56.062 h -19.12 v 72.359" style="fill:#af783c;fill-opacity:1;fill-rule:nonzero;stroke:none" id="path98"/><path d="m 4798.41,306.219 v 90.613 h -14.55 v 14.559 h 14.55 v 5 c 0,14.769 3.48,28.238 12.17,36.718 7.18,6.95 16.74,9.77 25.65,9.77 6.95,0 12.59,-1.52 16.29,-3.027 l -2.6,-14.782 c -2.84,1.301 -6.53,2.379 -12.17,2.379 -16.3,0 -20.43,-14.121 -20.43,-30.41 v -5.648 h 25.43 v -14.559 h -25.43 v -90.613 h -18.91" style="fill:#af783c;fill-opacity:1;fill-rule:nonzero;stroke:none" id="path100"/><path d="m 4859.92,378.578 c 0,12.391 -0.22,23.031 -0.87,32.813 h 16.73 l 0.88,-20.86 h 0.64 c 4.78,14.117 16.51,23.039 29.34,23.039 1.95,0 3.47,-0.23 5.21,-0.441 V 395.09 c -1.95,0.441 -3.91,0.441 -6.52,0.441 -13.47,0 -23.03,-10 -25.64,-24.34 -0.44,-2.601 -0.65,-5.871 -0.65,-8.91 v -56.062 h -19.12 v 72.359" style="fill:#af783c;fill-opacity:1;fill-rule:nonzero;stroke:none" id="path102"/><path d="m 4995.53,369.02 c 0.22,11.949 -5,30.859 -26.51,30.859 -19.55,0 -27.81,-17.598 -29.33,-30.859 z m -56.06,-13.7 c 0.44,-25.851 16.74,-36.5 36.07,-36.5 13.69,0 22.17,2.391 29.12,5.442 l 3.48,-13.692 c -6.74,-3.039 -18.48,-6.738 -35.21,-6.738 -32.37,0 -51.7,21.508 -51.7,53.227 0,31.73 18.68,56.511 49.31,56.511 34.55,0 43.46,-29.992 43.46,-49.332 0,-3.918 -0.22,-6.738 -0.65,-8.918 h -73.88" style="fill:#af783c;fill-opacity:1;fill-rule:nonzero;stroke:none" id="path104"/><path d="m 5104.42,369.02 c 0.21,11.949 -5,30.859 -26.51,30.859 -19.56,0 -27.82,-17.598 -29.33,-30.859 z m -56.07,-13.7 c 0.44,-25.851 16.74,-36.5 36.08,-36.5 13.69,0 22.17,2.391 29.12,5.442 l 3.48,-13.692 c -6.74,-3.039 -18.48,-6.738 -35.21,-6.738 -32.37,0 -51.71,21.508 -51.71,53.227 0,31.73 18.68,56.511 49.32,56.511 34.55,0 43.46,-29.992 43.46,-49.332 0,-3.918 -0.22,-6.738 -0.65,-8.918 h -73.89" style="fill:#af783c;fill-opacity:1;fill-rule:nonzero;stroke:none" id="path106"/><path d="m 5139.43,317.52 c 0,7.82 5.43,13.691 13.04,13.691 7.6,0 12.82,-5.652 12.82,-13.691 0,-7.821 -5.22,-13.688 -13.26,-13.688 -7.39,0 -12.6,5.867 -12.6,13.688" style="fill:#af783c;fill-opacity:1;fill-rule:nonzero;stroke:none" id="path108"/><path d="m 1113.75,199.68 h 33.02 v -60.84 h 0.44 c 3.48,4.789 7.82,8.48 13.04,11.082 4.99,2.609 11.08,4.129 17.16,4.129 21.08,0 37.16,-14.563 37.16,-46.711 V 45.4102 h -33.03 v 58.4488 c 0,13.911 -4.78,23.473 -17.16,23.473 -8.7,0 -14.13,-5.652 -16.52,-11.73 -0.87,-1.961 -1.09,-4.793 -1.09,-7.172 V 45.4102 h -33.02 V 199.68" style="fill:#2d68af;fill-opacity:1;fill-rule:nonzero;stroke:none" id="path110"/><path d="m 1298.48,180.34 v -28.68 h 23.68 v -24.328 h -23.68 V 88.8711 c 0,-12.8203 3.26,-18.6797 13.04,-18.6797 4.56,0 6.73,0.207 9.77,0.8594 l 0.22,-24.9805 c -4.13,-1.5312 -12.17,-2.8398 -21.29,-2.8398 -10.65,0 -19.56,3.7109 -24.99,9.1406 -6.08,6.2891 -9.13,16.5078 -9.13,31.5 v 43.4609 h -14.12 v 24.328 h 14.12 v 19.781 l 32.38,8.899" style="fill:#2d68af;fill-opacity:1;fill-rule:nonzero;stroke:none" id="path112"/><path d="m 1399.98,180.34 v -28.68 h 23.68 v -24.328 h -23.68 V 88.8711 c 0,-12.8203 3.26,-18.6797 13.03,-18.6797 4.57,0 6.74,0.207 9.78,0.8594 l 0.22,-24.9805 c -4.13,-1.5312 -12.17,-2.8398 -21.3,-2.8398 -10.64,0 -19.55,3.7109 -24.98,9.1406 -6.09,6.2891 -9.13,16.5078 -9.13,31.5 v 43.4609 h -14.12 v 24.328 h 14.12 v 19.781 l 32.38,8.899" style="fill:#2d68af;fill-opacity:1;fill-rule:nonzero;stroke:none" id="path114"/><path d="m 1497.56,91.0508 c 0,-2.6211 0.22,-4.7891 0.65,-6.961 2.18,-8.9101 9.78,-15.6406 19.34,-15.6406 14.34,0 22.82,11.9414 22.82,29.9805 0,16.9493 -7.61,29.7693 -22.39,29.7693 -9.34,0 -17.59,-6.957 -19.77,-16.73 -0.43,-1.739 -0.65,-3.918 -0.65,-5.867 z m -33.02,24.9802 c 0,13.899 -0.44,25.641 -0.87,35.629 h 28.68 l 1.52,-14.769 h 0.43 c 7.82,11.078 19.99,17.16 35.42,17.16 23.25,0 44.11,-20.199 44.11,-54.1018 0,-38.6797 -24.56,-56.9297 -48.24,-56.9297 -12.82,0 -22.81,5.211 -27.6,12.1719 h -0.43 V 2.39063 h -33.02 V 116.031" style="fill:#2d68af;fill-opacity:1;fill-rule:nonzero;stroke:none" id="path116"/><path d="m 1614.07,62.7891 c 0,11.7304 8.03,20 19.33,20 11.52,0 19.12,-8.0391 19.34,-20 0,-11.2891 -7.61,-19.7696 -19.55,-19.7696 -11.3,0 -19.12,8.4805 -19.12,19.7696 z m 0,70.1909 c 0,11.731 8.03,19.989 19.33,19.989 11.52,0 19.12,-8.039 19.34,-19.989 0,-11.3 -7.61,-19.769 -19.55,-19.769 -11.3,0 -19.12,8.469 -19.12,19.769" style="fill:#2d68af;fill-opacity:1;fill-rule:nonzero;stroke:none" id="path118"/><path d="m 1684.7,36.9414 46.51,157.5196 h 21.94 l -46.5,-157.5196 h -21.95" style="fill:#2d68af;fill-opacity:1;fill-rule:nonzero;stroke:none" id="path120"/><path d="m 1778.37,36.9414 46.51,157.5196 h 21.94 l -46.5,-157.5196 h -21.95" style="fill:#2d68af;fill-opacity:1;fill-rule:nonzero;stroke:none" id="path122"/><path d="m 1904.64,151.66 8.69,-43.672 c 1.96,-10.8669 4.14,-22.5974 5.87,-34.7692 h 0.66 c 1.95,12.1718 5.21,24.1328 7.6,34.5622 l 11.29,43.879 h 26.08 l 10.65,-42.371 c 3.04,-12.1679 5.86,-23.8984 7.82,-36.0702 h 0.44 c 1.52,11.9609 3.69,24.1328 6.29,36.2932 l 8.91,42.148 h 32.38 L 1998.73,45.4102 h -30.85 l -10,37.1601 c -2.83,10.4297 -4.78,19.9887 -6.96,33.2387 h -0.43 c -1.96,-13.25 -4.13,-23.2504 -6.74,-33.0199 l -10.64,-37.3789 h -31.07 L 1870.96,151.66 h 33.68" style="fill:#2d68af;fill-opacity:1;fill-rule:nonzero;stroke:none" id="path124"/><path d="m 2095.46,151.66 8.7,-43.672 c 1.95,-10.8669 4.13,-22.5974 5.86,-34.7692 h 0.66 c 1.95,12.1718 5.21,24.1328 7.6,34.5622 l 11.3,43.879 h 26.07 l 10.65,-42.371 c 3.04,-12.1679 5.86,-23.8984 7.82,-36.0702 h 0.44 c 1.52,11.9609 3.69,24.1328 6.29,36.2932 l 8.91,42.148 h 32.38 L 2189.55,45.4102 h -30.85 l -10,37.1601 c -2.83,10.4297 -4.78,19.9887 -6.96,33.2387 h -0.43 c -1.96,-13.25 -4.13,-23.2504 -6.73,-33.0199 l -10.65,-37.3789 h -31.07 L 2061.78,151.66 h 33.68" style="fill:#2d68af;fill-opacity:1;fill-rule:nonzero;stroke:none" id="path126"/><path d="m 2286.28,151.66 8.7,-43.672 c 1.96,-10.8669 4.13,-22.5974 5.86,-34.7692 h 0.66 c 1.95,12.1718 5.21,24.1328 7.61,34.5622 l 11.3,43.879 h 26.07 l 10.64,-42.371 c 3.05,-12.1679 5.87,-23.8984 7.83,-36.0702 h 0.44 c 1.51,11.9609 3.69,24.1328 6.29,36.2932 l 8.91,42.148 h 32.37 L 2380.38,45.4102 h -30.86 l -9.99,37.1601 c -2.84,10.4297 -4.79,19.9887 -6.96,33.2387 h -0.44 c -1.95,-13.25 -4.13,-23.2504 -6.72,-33.0199 l -10.66,-37.3789 h -31.06 L 2252.61,151.66 h 33.67" style="fill:#2d68af;fill-opacity:1;fill-rule:nonzero;stroke:none" id="path128"/><path d="m 2437.35,63.0117 c 0,11.9492 8.04,20.1992 19.56,20.1992 11.29,0 19.12,-8.0312 19.34,-20.1992 0,-11.5117 -7.83,-19.9922 -19.78,-19.9922 -11.08,0 -19.12,8.4805 -19.12,19.9922" style="fill:#2d68af;fill-opacity:1;fill-rule:nonzero;stroke:none" id="path130"/><path d="m 2517.98,199.68 h 33.03 V 45.4102 h -33.03 V 199.68" style="fill:#2d68af;fill-opacity:1;fill-rule:nonzero;stroke:none" id="path132"/><path d="m 2627.51,98.6406 c 0,-18.25 7.61,-31.9297 21.73,-31.9297 13.04,0 21.08,12.8086 21.08,32.1485 0,15.6406 -6.09,31.7306 -21.08,31.7306 -15.64,0 -21.73,-16.301 -21.73,-31.9494 z m 76.92,1.1016 c 0,-38.9024 -27.59,-56.7227 -56.06,-56.7227 -31.07,0 -54.97,20.4297 -54.97,54.7618 0,34.5507 22.6,56.4887 56.93,56.4887 32.38,0 54.1,-22.379 54.1,-54.5278" style="fill:#2d68af;fill-opacity:1;fill-rule:nonzero;stroke:none" id="path134"/><path d="m 2814.85,108.43 c 0,1.949 -0.22,4.121 -0.66,6.07 -2.38,8.699 -8.69,14.559 -17.81,14.559 -12.17,0 -21.73,-10.848 -21.73,-30.1996 0,-15.8594 7.83,-28.2383 21.52,-28.2383 8.69,0 15.42,5.6406 17.59,13.25 0.87,2.6094 1.09,6.0781 1.09,8.918 z m 33.03,-47.5902 c 0,-20.4296 -4.13,-37.1601 -16.3,-47.8007 C 2820.06,3.03906 2804.2,0 2788.56,0 c -14.13,0 -28.68,2.82031 -38.24,8.03906 l 6.51,25.19924 c 6.74,-3.9063 18.25,-8.0274 30.86,-8.0274 15.64,0 27.6,8.25 27.6,28.0196 v 6.7383 h -0.44 c -6.3,-8.6875 -16.52,-13.6875 -28.68,-13.6875 -26.29,0 -44.98,21.289 -44.98,51.7187 0,34.332 21.95,56.051 48.24,56.051 14.55,0 23.68,-6.289 29.11,-15.211 h 0.44 l 1.08,12.82 h 28.69 c -0.43,-6.949 -0.87,-15.859 -0.87,-31.719 V 60.8398" style="fill:#2d68af;fill-opacity:1;fill-rule:nonzero;stroke:none" id="path136"/><path d="m 2924.17,98.6406 c 0,-18.25 7.61,-31.9297 21.74,-31.9297 13.03,0 21.08,12.8086 21.08,32.1485 0,15.6406 -6.09,31.7306 -21.08,31.7306 -15.64,0 -21.74,-16.301 -21.74,-31.9494 z m 76.93,1.1016 c 0,-38.9024 -27.6,-56.7227 -56.07,-56.7227 -31.06,0 -54.97,20.4297 -54.97,54.7618 0,34.5507 22.6,56.4887 56.94,56.4887 32.37,0 54.1,-22.379 54.1,-54.5278" style="fill:#2d68af;fill-opacity:1;fill-rule:nonzero;stroke:none" id="path138"/><path d="m 3108.26,110.602 c 0,8.027 -3.48,21.507 -18.68,21.507 -13.91,0 -19.57,-12.82 -20.43,-21.507 z M 3069.37,88 c 0.86,-13.6914 14.55,-20.2109 29.98,-20.2109 11.3,0 20.43,1.5195 29.34,4.5703 l 4.34,-22.3906 c -10.87,-4.5586 -24.12,-6.7383 -38.46,-6.7383 -36.07,0 -56.71,20.8593 -56.71,54.1211 0,26.9374 16.72,56.6994 53.67,56.6994 34.32,0 47.37,-26.719 47.37,-53.012 0,-5.6601 -0.65,-10.6484 -1.09,-13.039 h -68.44" style="fill:#2d68af;fill-opacity:1;fill-rule:nonzero;stroke:none" id="path140"/><path d="m 3213.46,91.0508 c 0,-2.6211 0.23,-4.7891 0.66,-6.961 2.16,-8.9101 9.77,-15.6406 19.33,-15.6406 14.35,0 22.81,11.9414 22.81,29.9805 0,16.9493 -7.59,29.7693 -22.37,29.7693 -9.34,0 -17.61,-6.957 -19.77,-16.73 -0.43,-1.739 -0.66,-3.918 -0.66,-5.867 z m -33.03,24.9802 c 0,13.899 -0.43,25.641 -0.86,35.629 h 28.68 l 1.52,-14.769 h 0.44 c 7.81,11.078 19.98,17.16 35.41,17.16 23.25,0 44.11,-20.199 44.11,-54.1018 0,-38.6797 -24.55,-56.9297 -48.23,-56.9297 -12.82,0 -22.82,5.211 -27.6,12.1719 h -0.44 V 2.39063 h -33.03 V 116.031" style="fill:#2d68af;fill-opacity:1;fill-rule:nonzero;stroke:none" id="path142"/><path d="m 3331.92,74.0898 c 6.08,-3.6914 18.68,-7.8203 28.47,-7.8203 9.99,0 14.12,3.2618 14.12,8.6914 0,5.6602 -3.26,8.25 -15.43,12.3907 -22.16,7.3906 -30.64,19.3394 -30.42,31.9374 0,19.992 16.95,34.981 43.24,34.981 12.38,0 23.25,-3.04 29.77,-6.301 l -5.65,-22.809 c -4.78,2.61 -14.13,6.082 -23.04,6.082 -8.03,0 -12.59,-3.262 -12.59,-8.472 0,-5.219 4.12,-7.829 17.16,-12.391 20.21,-6.949 28.46,-17.379 28.68,-32.8087 0,-19.9883 -15.42,-34.5508 -45.84,-34.5508 -13.91,0 -26.29,3.2618 -34.34,7.6094 l 5.87,23.4609" style="fill:#2d68af;fill-opacity:1;fill-rule:nonzero;stroke:none" id="path144"/><path d="m 3443.63,63.0117 c 0,11.9492 8.04,20.1992 19.56,20.1992 11.3,0 19.12,-8.0312 19.33,-20.1992 0,-11.5117 -7.82,-19.9922 -19.77,-19.9922 -11.08,0 -19.12,8.4805 -19.12,19.9922" style="fill:#2d68af;fill-opacity:1;fill-rule:nonzero;stroke:none" id="path146"/><path d="m 3604.01,48.2305 c -5.87,-2.8203 -16.94,-5 -29.55,-5 -34.33,0 -56.28,21.0898 -56.28,54.3281 0,31.0704 21.3,56.4924 60.84,56.4924 8.69,0 18.25,-1.52 25.2,-4.129 l -5.21,-24.551 c -3.91,1.738 -9.78,3.258 -18.47,3.258 -17.38,0 -28.68,-12.387 -28.46,-29.7696 0,-19.3399 13.03,-29.7696 29.12,-29.7696 7.82,0 13.9,1.3086 18.89,3.4805 l 3.92,-24.3398" style="fill:#2d68af;fill-opacity:1;fill-rule:nonzero;stroke:none" id="path148"/><path d="m 3669.66,98.6406 c 0,-18.25 7.6,-31.9297 21.72,-31.9297 13.05,0 21.09,12.8086 21.09,32.1485 0,15.6406 -6.09,31.7306 -21.09,31.7306 -15.64,0 -21.72,-16.301 -21.72,-31.9494 z m 76.92,1.1016 c 0,-38.9024 -27.6,-56.7227 -56.06,-56.7227 -31.07,0 -54.98,20.4297 -54.98,54.7618 0,34.5507 22.6,56.4887 56.94,56.4887 32.37,0 54.1,-22.379 54.1,-54.5278" style="fill:#2d68af;fill-opacity:1;fill-rule:nonzero;stroke:none" id="path150"/><path d="m 3788.77,117.77 c 0,13.261 -0.43,24.332 -0.86,33.89 h 28.02 l 1.31,-14.328 h 0.66 c 4.56,6.949 14.12,16.938 32.15,16.938 13.91,0 24.55,-7.168 29.12,-18.25 h 0.43 c 4.13,5.652 8.7,10 13.91,13.031 5.86,3.269 12.38,5.219 20.21,5.219 20.42,0 35.85,-14.34 35.85,-46.282 V 45.4102 h -32.16 v 57.8008 c 0,15.418 -4.99,24.34 -15.65,24.34 -7.82,0 -13.03,-5.211 -15.42,-11.52 -0.65,-2.39 -1.09,-5.652 -1.09,-8.48 V 45.4102 h -32.16 v 59.7618 c 0,13.25 -4.77,22.379 -15.42,22.379 -8.48,0 -13.48,-6.52 -15.43,-11.742 -1.09,-2.598 -1.31,-5.637 -1.31,-8.469 V 45.4102 h -32.16 V 117.77" style="fill:#2d68af;fill-opacity:1;fill-rule:nonzero;stroke:none" id="path152"/><path d="m 3987.64,36.9414 46.5,157.5196 h 21.95 L 4009.58,36.9414 h -21.94" style="fill:#2d68af;fill-opacity:1;fill-rule:nonzero;stroke:none" id="path154"/><path d="m 1835.68,4260.93 c -11.62,-1.75 -22.79,-44.54 -45.24,-66.85 -16.44,-16.04 -36.9,-15.12 -47.83,-34.97 -4.12,-7.4 -2.78,-20.1 -7.47,-32.29 -9.18,-24.33 -41.46,-26.48 -41.46,-53.03 -0.06,-28.68 26.89,-34.13 50.33,-54.5 18.3,-16.31 20.05,-27.62 42.17,-35.57 18.87,-6.42 47,14.6 72.29,7.02 20.77,-6.18 40.67,-10.61 45.35,-31.94 4.12,-19.69 -0.29,-50.19 -25.48,-46.66 -8.49,0.97 -45.33,13.33 -90.51,8.56 -54.62,-6.23 -116.88,-24.04 -122.98,-84.9 -3.37,-33.99 38.72,-74.1 79.32,-65.96 28.1,5.55 14.83,38.67 30.1,54.78 20.05,20.61 133.67,-71.98 239.29,-71.98 44.43,0 77.55,11.24 110.37,45.64 3.09,2.63 6.82,8.26 11.58,8.62 4.48,-0.36 12.28,-4.76 14.86,-6.64 85.05,-68.34 149.36,-205.5 461.98,-207.1 44,-0.27 94.04,-21.25 134.94,-58.54 36.46,-33.73 57.8,-86.23 78.54,-139.47 31.31,-79.85 87.35,-157.58 172.34,-244.01 4.64,-4.62 74.64,-59.03 80.23,-63.08 0.88,-0.61 6.04,-12.88 4.25,-19.72 -2.08,-51.86 -9.62,-202.61 102.78,-209.41 27.44,-1.41 20.28,17.94 20.28,31.19 -0.07,26.26 -4.84,52.35 8.96,79.24 18.95,36.96 -40.12,53.97 -38.42,133.93 1.25,59.57 -48.85,49.44 -74.22,94.83 -14.61,26.33 -27.64,40.27 -26.7,72.46 5.74,181.07 -38.54,300.06 -60.58,329.29 -17.24,22.07 -31.46,30.8 -15.71,41.02 93.77,61.96 115.04,119.57 115.04,119.57 49.87,117.25 94.72,224.33 156.59,271.47 12.47,9.74 44.39,33.61 63.96,42.93 57.78,27.22 88.13,43.72 104.91,60.04 26.45,25.81 47.48,79.74 22.06,112.43 -31.64,40.32 -86.32,8.32 -110.44,-6 -172.43,-102.32 -197.83,-282.85 -257.56,-386.48 -47.67,-82.86 -125.14,-143.7 -194.41,-148.67 -51.89,-3.86 -107.9,6.64 -163.62,31.13 -135.57,59.42 -209.71,136.17 -227.25,149.72 -36.41,28.1 -319.15,305.7 -548.2,316.99 0,0 -28.45,56.93 -35.58,57.88 -16.76,2.14 -33.91,-33.98 -46.2,-38.2 -11.55,-3.83 -30.99,39.12 -42.66,37.23 v 0" style="fill:#171717;fill-opacity:1;fill-rule:evenodd;stroke:none" id="path156"/></g>
    </g>
</svg>
